HIERARCHY
ROOT Hips
{
  OFFSET 1.44925e-005 102.336 -0.101585
  CHANNELS 6 Xposition Yposition Zposition Zrotation Xrotation Yrotation
  JOINT LeftUpLeg
  {
    OFFSET 8.9458 -8.66707 0.101652
    CHANNELS 3 Zrotation Xrotation Yrotation
    JOINT LeftLeg
    {
      OFFSET 0 -44.4227 1.3727
      CHANNELS 3 Zrotation Xrotation Yrotation
      JOINT LeftFoot
      {
        OFFSET -0.253549 -42.0924 -1.46059
        CHANNELS 3 Zrotation Xrotation Yrotation
        JOINT LeftToes
        {
          OFFSET -0.04 -4.41509 8.4991
          CHANNELS 3 Zrotation Xrotation Yrotation
          End Site
          {
            OFFSET 0.08 -0.047448 9.77979
          }
        }
      }
    }
  }
  JOINT Spine
  {
    OFFSET 0 11.8905 0
    CHANNELS 3 Zrotation Xrotation Yrotation
    JOINT Spine1
    {
      OFFSET 0 25.6574 0.127663
      CHANNELS 3 Zrotation Xrotation Yrotation
      JOINT RightShoulder
      {
        OFFSET -8.99 -0.362252 -0.22
        CHANNELS 3 Zrotation Xrotation Yrotation
        JOINT RightArm
        {
          OFFSET -10.2827 -0.00338 0.322123
          CHANNELS 3 Zrotation Xrotation Yrotation
          JOINT RightForeArm
          {
            OFFSET -26.364 0.099144 -1.42434
            CHANNELS 3 Zrotation Xrotation Yrotation
            JOINT RightHand
            {
              OFFSET -22.0324 0.085362 1.02216
              CHANNELS 3 Zrotation Xrotation Yrotation
              End Site
              {
                OFFSET -13.3284 -0.6 1.50291
              }
            }
          }
        }
      }
      JOINT LeftShoulder1
      {
        OFFSET 8.99 -0.362252 -0.22
        CHANNELS 3 Zrotation Xrotation Yrotation
        JOINT LeftArm
        {
          OFFSET 10.2827 -0.00337999 0.322123
          CHANNELS 3 Zrotation Xrotation Yrotation
          JOINT LeftForeArm
          {
            OFFSET 26.2597 0.099144 -1.42434
            CHANNELS 3 Zrotation Xrotation Yrotation
            JOINT LeftHand
            {
              OFFSET 22.0902 0.085362 1.02216
              CHANNELS 3 Zrotation Xrotation Yrotation
              End Site
              {
                OFFSET 13.419 -0.6 1.50291
              }
            }
          }
        }
      }
      JOINT Head
      {
        OFFSET 0 8.73416 0.011341
        CHANNELS 3 Zrotation Xrotation Yrotation
        End Site
        {
          OFFSET -0.29 12.7742 2.51395
        }
      }
    }
  }
  JOINT RightUpLeg
  {
    OFFSET -8.9458 -8.66707 0.101652
    CHANNELS 3 Zrotation Xrotation Yrotation
    JOINT RightLeg
    {
      OFFSET 0 -44.4227 1.3727
      CHANNELS 3 Zrotation Xrotation Yrotation
      JOINT RightFoot
      {
        OFFSET 0.253549 -42.0924 -1.46059
        CHANNELS 3 Zrotation Xrotation Yrotation
        JOINT RightToes
        {
          OFFSET 0.04 -4.41509 8.4991
          CHANNELS 3 Zrotation Xrotation Yrotation
          End Site
          {
            OFFSET -0.08 -0.137448 9.77979
          }
        }
      }
    }
  }
}
MOTION
Frames:	17
Frame Time:	0.0333333
187.369 103.062 2.79417 -3.89699 -0.0215334 -93.2125 -0.750006 4.60682 3.01851 -0.0914198 7.09649 23.5742 -2.71498 -11.5621 -0.0426212 -1.29309e-009 8.75235e-006 -1.46306e-008 2.9223 9.26889 0.588346 -4.42269 -2.90208 1.50949 37.336 1.77841 0.07489 40.7713 -13.3012 4.25856 7.35204 34.9272 10.6031 -9.15877 9.32203 2.59813 -43.9535 3.58916 -3.58964 -27.4281 -8.12788 3.55268 -3.43405 29.3615 -17.5588 5.82328 9.61819 -0.917488 2.2095 -5.42858 -3.50258 -0.364451 4.57978 -3.51532 -1.0438 9.0713 -6.40289 3.94204 -13.4905 -0.00915087 0.0462048 0.000530889 0.662642 
187.363 103.062 2.7958 -3.88175 -0.00945427 -93.2035 -0.747354 4.54268 3.00255 -0.0692894 7.20068 23.5832 -2.74315 -11.5922 -0.0426258 -1.29309e-009 8.75235e-006 -1.46306e-008 2.94216 9.03131 0.590188 -4.43798 -2.54829 1.5221 37.3589 1.77841 0.0699043 40.7927 -13.376 4.37524 7.4808 34.5064 10.5136 -9.34905 9.35235 1.99706 -43.9809 3.58946 -3.58963 -27.3814 -8.22463 3.42472 -3.47128 29.3245 -17.5218 5.82328 9.61819 -0.917488 2.18184 -5.57273 -3.47077 -0.361088 4.57261 -3.52786 -1.0184 9.07154 -6.38903 3.91239 -13.5025 -0.00915133 0.0462048 0.000530889 0.662642 
187.347 103.062 2.80259 -3.8699 0.00776946 -93.1956 -0.750388 4.48205 2.96886 -0.0275597 7.31775 23.6107 -2.79596 -11.6274 -0.0426861 -1.29309e-009 8.75235e-006 -1.46306e-008 2.98453 8.74477 0.601363 -4.49265 -2.12586 1.55435 37.4549 1.77841 0.0617057 40.7446 -13.4046 4.43811 7.58616 33.9815 10.4823 -9.56509 9.38182 1.40866 -43.95 3.58588 -3.58701 -27.3642 -8.4735 3.23566 -3.51143 29.52 -17.4115 5.82328 9.61819 -0.917488 2.12822 -5.7326 -3.47736 -0.351362 4.57838 -3.52373 -1.00988 9.07052 -6.41022 3.92964 -13.5053 -0.00915144 0.0462048 0.000530889 0.662642 
187.326 103.061 2.80929 -3.86954 0.0156346 -93.2005 -0.758851 4.48419 2.94957 -0.00360316 7.34155 23.6379 -2.82403 -11.6479 -0.0428416 -1.29309e-009 8.75235e-006 -1.46306e-008 3.02203 8.78622 0.593292 -4.58043 -2.22826 1.55998 37.5955 1.77841 0.0620767 40.6222 -13.3363 4.26511 7.60086 33.7469 10.5246 -9.5727 9.3896 1.29956 -43.7533 3.56455 -3.57497 -27.4966 -8.84855 3.27389 -3.48766 29.9886 -17.2935 5.82328 9.61819 -0.917488 2.091 -5.65089 -3.48291 -0.351058 4.59011 -3.52748 -1.00701 9.07275 -6.41686 3.95938 -13.5079 -0.00915154 0.0462048 0.000530889 0.662642 
187.308 103.059 2.81274 -3.8589 0.0121219 -93.2153 -0.764278 4.50384 2.95165 -0.00973891 7.30694 23.6524 -2.8161 -11.6638 -0.0428974 -1.29309e-009 8.75235e-006 -1.46306e-008 3.02169 9.04977 0.552804 -4.64352 -2.72702 1.51502 37.7077 1.77841 0.0656449 40.5189 -13.3537 3.99948 7.64436 33.7808 10.4638 -9.53999 9.3928 1.28241 -43.4936 3.53684 -3.55984 -27.6907 -9.16622 3.56086 -3.38773 30.4158 -17.2745 5.82328 9.61819 -0.917488 2.10695 -5.35275 -3.40347 -0.367338 4.5789 -3.54652 -0.993378 9.09126 -6.37766 3.93958 -13.5271 -0.00915228 0.0462048 0.000530889 0.662642 
187.291 103.058 2.81591 -3.83278 0.00687755 -93.235 -0.767585 4.49578 2.95184 -0.0215952 7.29037 23.6686 -2.80749 -11.6779 -0.0428663 -1.29309e-009 8.75235e-006 -1.46306e-008 2.97587 9.14895 0.520654 -4.61295 -3.01033 1.46513 37.7243 1.77841 0.0695177 40.4966 -13.4324 3.8434 7.75363 33.6722 10.3357 -9.70732 9.40745 0.960717 -43.4234 3.52834 -3.55283 -27.7137 -9.26009 3.81808 -3.29708 30.542 -17.3356 5.82328 9.61819 -0.917488 2.13506 -5.1198 -3.27358 -0.375977 4.54959 -3.54681 -0.994588 9.10783 -6.34313 3.90068 -13.5497 -0.00915315 0.0462048 0.000530889 0.662642 
187.272 103.058 2.82297 -3.82177 0.00841254 -93.2559 -0.775022 4.49002 2.95199 -0.0170357 7.3055 23.6979 -2.82007 -11.6842 -0.0427595 -1.29309e-009 8.75235e-006 -1.46306e-008 2.93236 9.03428 0.530434 -4.52448 -2.92828 1.45926 37.6592 1.77841 0.0708518 40.5162 -13.2287 3.73072 7.77245 33.1628 10.4405 -9.90537 9.42118 0.638207 -43.5833 3.54256 -3.55106 -27.5307 -9.21331 3.89375 -3.31034 30.4615 -17.3436 5.82328 9.61819 -0.917488 2.1027 -5.09516 -3.19313 -0.367795 4.54628 -3.52588 -1.01775 9.10894 -6.34956 3.90209 -13.554 -0.00915331 0.0462048 0.000530889 0.662642 
187.247 103.058 2.82736 -3.84593 0.0138565 -93.2697 -0.784796 4.52523 2.95239 -0.00377876 7.3236 23.7228 -2.83854 -11.692 -0.0425907 -1.29309e-009 8.75235e-006 -1.46306e-008 2.94024 8.98013 0.551147 -4.49116 -2.87342 1.47663 37.611 1.77841 0.069227 40.5083 -12.7277 3.52412 7.6242 32.6161 10.8098 -9.84227 9.41733 0.733894 -43.7256 3.55488 -3.55168 -27.3738 -9.2459 3.92393 -3.41983 30.4112 -17.2333 5.82328 9.61819 -0.917488 2.02346 -5.11067 -3.17316 -0.364838 4.59019 -3.52754 -1.02655 9.10044 -6.36118 3.92805 -13.5486 -0.0091531 0.0462048 0.000530889 0.662642 
187.22 103.058 2.82808 -3.88072 0.0149996 -93.2692 -0.791189 4.57489 2.95305 0.00216344 7.33727 23.7226 -2.85218 -11.7154 -0.0423743 -1.29309e-009 8.75235e-006 -1.46306e-008 2.97153 9.01558 0.541781 -4.53369 -2.95111 1.47299 37.6507 1.77841 0.0670041 40.4679 -12.5181 3.35183 7.4915 32.5588 11.0177 -9.68622 9.41122 0.92351 -43.7009 3.55148 -3.55343 -27.3771 -9.44112 3.99237 -3.56123 30.4701 -17.0504 5.82328 9.61819 -0.917488 1.95443 -5.02483 -3.17921 -0.378349 4.6498 -3.56353 -1.00602 9.08842 -6.34622 3.92448 -13.5574 -0.00915344 0.0462048 0.000530889 0.662642 
187.197 103.058 2.82697 -3.89476 0.0115369 -93.2615 -0.793421 4.59785 2.95392 0.00190294 7.35079 23.7059 -2.86812 -11.7424 -0.0421206 -1.29309e-009 8.75235e-006 -1.46306e-008 2.94935 8.89425 0.522925 -4.53557 -2.83762 1.45399 37.7162 1.77841 0.0664972 40.4515 -12.9773 3.41097 7.55444 32.9602 10.7878 -9.80153 9.42422 0.673257 -43.6795 3.54877 -3.55522 -27.3744 -9.69311 3.97339 -3.70968 30.5778 -16.8442 5.82328 9.61819 -0.917488 1.82511 -4.99628 -3.27299 -0.388639 4.69069 -3.58987 -0.990361 9.06633 -6.32941 3.89568 -13.5771 -0.0091542 0.0462048 0.000530889 0.662642 
187.178 103.058 2.82475 -3.89027 0.00988088 -93.2623 -0.793495 4.60342 2.95519 0.00312095 7.35101 23.6977 -2.87672 -11.7491 -0.0418384 -1.29309e-009 8.75235e-006 -1.46306e-008 2.84467 8.58137 0.541725 -4.39893 -2.45153 1.45336 37.6764 1.77841 0.0703909 40.5193 -13.6631 3.61669 7.70623 33.3242 10.4096 -10.1036 9.44827 0.16296 -43.8496 3.56436 -3.55984 -27.2024 -9.86889 3.80902 -3.84701 30.6832 -16.6557 5.82328 9.61819 -0.917488 1.50098 -5.23282 -3.52309 -0.382147 4.71207 -3.58123 -1.00141 9.03641 -6.33115 3.88936 -13.5853 -0.00915452 0.0462048 0.000530889 0.662642 
187.165 103.059 2.82198 -3.88245 0.0101593 -93.2759 -0.793232 4.61366 2.95718 0.00293134 7.33185 23.7073 -2.86051 -11.7388 -0.0415402 -1.29309e-009 8.75235e-006 -1.46306e-008 2.69574 8.29863 0.596135 -4.1587 -2.086 1.46957 37.5007 1.77841 0.0810153 40.6595 -14.0351 3.75903 7.78941 33.3809 10.2417 -10.2869 9.46487 -0.153927 -44.1236 3.59141 -3.57133 -26.9715 -9.89493 3.64328 -3.90212 30.7331 -16.5819 5.82328 9.61819 -0.917488 1.05119 -5.65788 -3.81501 -0.374126 4.7171 -3.56594 -1.016 9.02464 -6.32991 3.90834 -13.5825 -0.00915441 0.0462048 0.000530889 0.662642 
187.158 103.059 2.81709 -3.87541 0.00742095 -93.2899 -0.792923 4.61861 2.95966 -0.00180001 7.31948 23.7236 -2.84244 -11.738 -0.0412426 -1.29309e-009 8.75235e-006 -1.46306e-008 2.56412 8.13992 0.643558 -3.94078 -1.88276 1.47961 37.3173 1.77841 0.0906033 40.794 -14.2053 3.84519 7.83955 33.2818 10.1812 -10.3824 9.47741 -0.360852 -44.2908 3.61161 -3.58543 -26.8786 -9.74641 3.581 -3.83666 30.6404 -16.6881 5.82328 9.61819 -0.917488 0.724662 -6.0465 -3.96445 -0.377647 4.7013 -3.57044 -1.01515 9.04892 -6.3147 3.90595 -13.5898 -0.00915469 0.0462048 0.000530889 0.662642 
187.156 103.059 2.81044 -3.87985 0.0067019 -93.2931 -0.789183 4.61346 2.96204 -0.00188314 7.34235 23.7296 -2.86305 -11.7579 -0.0409592 -1.29309e-009 8.75235e-006 -1.46306e-008 2.51225 8.04113 0.659593 -3.8651 -1.74396 1.48453 37.2675 1.77837 0.0919847 40.8541 -14.4705 3.98421 7.93905 33.3044 10.0143 -10.5037 9.48856 -0.563165 -44.2891 3.61559 -3.59312 -26.9295 -9.49461 3.55793 -3.74134 30.4048 -16.8687 5.82328 9.61819 -0.917488 0.588922 -6.33513 -3.99634 -0.37911 4.69059 -3.58235 -1.01349 9.08305 -6.30815 3.86911 -13.6077 -0.00915539 0.0462048 0.000530889 0.662642 
187.159 103.059 2.80326 -3.91245 0.0179584 -93.2883 -0.774885 4.62513 2.9676 0.00752969 7.38764 23.7175 -2.90305 -11.7841 -0.0407002 -1.29309e-009 8.75235e-006 -1.46306e-008 2.55303 8.00628 0.656873 -3.93384 -1.65561 1.49833 37.3248 1.77833 0.0873603 40.8557 -14.6268 4.11501 7.95755 33.5906 9.91298 -10.4168 9.46959 -0.279429 -44.2255 3.60803 -3.58816 -26.9866 -9.3065 3.50433 -3.73399 30.1614 -16.9489 5.82328 9.61819 -0.917488 0.472182 -6.58098 -4.06559 -0.364313 4.72529 -3.58343 -1.01404 9.08595 -6.31243 3.84776 -13.6158 -0.0091557 0.0462048 0.000530889 0.662642 
187.165 103.06 2.79729 -3.95727 0.033519 -93.2887 -0.756754 4.66109 2.98555 0.0112687 7.4123 23.6976 -2.89963 -11.7983 -0.040475 -1.29309e-009 8.75235e-006 -1.46306e-008 2.60437 8.04716 0.659283 -4.00664 -1.65577 1.51607 37.3307 1.77845 0.0840842 40.881 -14.3016 4.11921 7.75304 33.9527 10.1563 -9.98218 9.41272 0.701627 -44.2136 3.60294 -3.5802 -26.9851 -9.28203 3.43845 -3.79298 30.0358 -16.9155 5.82328 9.61819 -0.917488 0.33379 -6.75406 -4.14227 -0.345545 4.78414 -3.57647 -1.01982 9.06337 -6.29928 3.87663 -13.61 -0.00915548 0.0462048 0.000530889 0.662642 
187.171 103.06 2.79061 -3.97327 0.0342099 -93.2989 -0.74828 4.68497 3.00441 -0.00192376 7.39646 23.6865 -2.85012 -11.7949 -0.0402953 -1.29309e-009 8.75235e-006 -1.46306e-008 2.60055 8.09421 0.670608 -4.00401 -1.70064 1.52611 37.2483 1.77871 0.0838411 40.9396 -13.5979 4.02379 7.474 33.8961 10.6188 -9.61759 9.36835 1.54356 -44.2215 3.60349 -3.58011 -27.0024 -9.33114 3.39536 -3.79439 30.028 -16.9129 5.82328 9.61819 -0.917488 0.339044 -6.79705 -4.0858 -0.341324 4.79915 -3.57064 -1.02444 9.05772 -6.27442 3.91234 -13.6052 -0.00915529 0.0462048 0.000530889 0.662642 
